<svg width="940" height="936" viewBox="0 0 940 936" fill="none" xmlns="http://www.w3.org/2000/svg">
<g filter="url(#filter0_f_38_5840)">
<path fill-rule="evenodd" clip-rule="evenodd" d="M672.872 251.476C588.958 290.738 504.531 273.542 436.949 256.148L436.949 256.15C421.294 250.816 404.453 248.105 387.495 248.15C372.165 248.189 354.151 250.528 339.31 255.284C280.742 274.047 243.285 332.386 255.534 389.141C260.144 410.535 274.549 426.232 295.323 430.529C329.408 437.586 363.846 420.497 367.944 383.438C372.47 342.532 344.654 328.555 323.965 318.699C342.674 303.522 366.782 301.58 387.831 310.969C444.64 336.293 430.289 404.946 380.858 433.809C370.168 440.607 359.932 446.283 350.604 451.456C343.02 455.662 336.036 459.535 329.898 463.406C264.747 504.511 251.382 530.515 253.148 600.1L394.902 600.522C423.717 672.306 516.786 695.489 585.869 675.726C631.492 662.667 665.891 639.859 684.807 601.492C695.863 579.074 702.5 551.334 700.71 517.134C695.939 425.895 612.293 377.978 511.611 402.392L511.425 402.075C515.697 388.983 517.681 375.059 517.294 361.139C583.952 369.237 688.563 372.982 694.02 263.435C694.464 254.596 693.409 248.043 690.434 245.788C687.956 243.913 684.615 245.607 678.857 248.529C677.101 249.419 675.121 250.424 672.872 251.476ZM429.002 474.898C424.082 476.306 419.041 477.649 413.91 479.017C390.777 485.184 365.811 491.839 341.833 506.988C321.694 519.719 317.06 528.573 321.311 529.544C322.045 529.71 324.878 528.352 329.437 526.168C342.705 519.81 370.592 506.447 403.887 503.249C430.096 500.727 453.033 503.08 474.357 505.267C504.48 508.358 531.382 511.118 559.734 499.334C567.174 510.88 572.648 523.603 571.769 538.145C569.896 569.081 547.593 600.972 507.322 600.857L500.32 600.836L499.347 604.863L493.078 613.159L482.756 623.474C496.985 628.497 507.559 629.177 521.222 628.268C545.529 626.654 566.914 617.724 584.278 594.496C607.637 563.247 614.327 519.046 600.182 488.232C591.297 468.881 574.92 453.054 547.012 450.546C522.774 448.374 506.512 456.64 492.267 477.972L429.002 474.898Z" fill="#FDD430"/>
</g>
<path fill-rule="evenodd" clip-rule="evenodd" d="M425.008 261.309C479.376 275.258 547.294 289.048 614.8 257.563C622.544 253.952 626.326 251.039 628.928 253.001C631.321 254.81 632.17 260.065 631.813 267.153C627.403 355.403 542.496 351.969 488.91 345.414L473.994 359.86L485.071 378.586C566.066 359.008 633.357 397.434 637.195 470.6C638.634 498.026 633.295 520.271 624.401 538.248C609.184 569.016 581.511 587.306 544.809 597.778C481.166 615.928 392.218 588.912 384.572 509.921L393.608 482.047L426.22 492.287L470.162 503.802L478.625 526.838L475.205 540.952L470.162 547.605L461.858 555.876C473.305 559.905 481.812 560.45 492.803 559.721C512.357 558.427 529.561 551.265 543.529 532.638C562.32 507.579 567.702 472.133 556.323 447.423C549.176 431.905 536.001 419.212 513.55 417.201C494.052 415.46 480.969 422.088 469.51 439.195L414.176 436.515L408.702 435.498L413.131 421.831L444.703 339.743L425.008 261.309Z" fill="url(#paint0_linear_38_5840)"/>
<path fill-rule="evenodd" clip-rule="evenodd" d="M334.116 311.471C349.167 299.3 368.561 297.743 385.494 305.272C431.195 325.579 419.65 380.634 379.885 403.78C364.292 413.664 349.899 420.592 338.889 427.515C286.477 460.477 275.726 481.33 277.146 537.133L481.62 537.74C514.017 537.831 531.959 512.257 533.466 487.449C534.173 475.787 529.769 465.585 523.784 456.326C484.831 472.464 449.279 454.585 398.411 459.466C362.422 462.911 334.288 481.073 331.982 480.552C328.562 479.773 332.289 472.673 348.49 462.464C382.4 441.108 418.764 440.801 445.262 426.668C481.485 407.354 496.339 363.692 486.916 325.175C475.758 279.569 431.023 254.773 385.224 254.896C372.891 254.927 358.4 256.803 346.461 260.617C299.345 275.663 269.212 322.446 279.065 367.96C282.774 385.116 294.363 397.703 311.075 401.149C338.495 406.809 366.199 393.105 369.496 363.386C373.137 330.583 350.76 319.374 334.116 311.471Z" fill="url(#paint1_linear_38_5840)"/>
<path d="M320.125 600H306.875C306.292 615.833 305.5 629.083 304.5 639.75C303.5 650.333 301.583 658.417 298.75 664C297.75 666 296.583 667.667 295.25 669C294 670.25 292.708 671.25 291.375 672C290.125 672.667 288.833 673.125 287.5 673.375C286.167 673.708 284.958 673.875 283.875 673.875C282.125 673.875 280.583 673.708 279.25 673.375C277.917 673.125 276.667 672.708 275.5 672.125L277.25 657.875C278.75 658.458 280.25 658.5 281.75 658C283.25 657.417 284.5 656.042 285.5 653.875C286.5 652.042 287.375 649.375 288.125 645.875C288.875 642.292 289.5 637.708 290 632.125C290.583 626.542 291 619.917 291.25 612.25C291.583 604.583 291.833 595.667 292 585.5H335.875V673H320.125V600ZM347.2 585.5H390.95V600H362.95V621.5H388.325V636H362.95V658.5H391.45V673H347.2V585.5ZM453.536 600H432.786V673H417.036V600H396.286V585.5H453.536V600ZM347.25 800.625H336.125L334.625 785H289.625L288.125 800.625H277V770.5H284.625C285.125 769.583 285.875 767.5 286.875 764.25C287.958 761 289.042 756.417 290.125 750.5C291.208 744.583 292.083 737.25 292.75 728.5C293.5 719.75 293.833 709.417 293.75 697.5H338.25V770.5H347.25V800.625ZM322.5 770.5V712H308.625C308.208 726.75 307.208 739.125 305.625 749.125C304.125 759.125 302.583 766.25 301 770.5H322.5ZM390.021 765.25H369.396L364.271 785H348.646L374.021 696.875H386.396L411.896 785H395.396L390.021 765.25ZM372.771 752.25H387.271L382.271 731.875L380.271 718.125H379.771L377.646 732L372.771 752.25ZM417.269 698.375C420.269 697.708 423.56 697.208 427.144 696.875C430.727 696.458 434.31 696.25 437.894 696.25C441.727 696.25 445.477 696.625 449.144 697.375C452.894 698.042 456.227 699.417 459.144 701.5C462.06 703.583 464.435 706.542 466.269 710.375C468.102 714.125 469.019 719.042 469.019 725.125C469.019 730.625 468.227 735.292 466.644 739.125C465.144 742.958 463.102 746.083 460.519 748.5C457.935 750.917 454.935 752.667 451.519 753.75C448.185 754.833 444.727 755.375 441.144 755.375C440.81 755.375 440.269 755.375 439.519 755.375C438.769 755.375 437.977 755.375 437.144 755.375C436.31 755.292 435.477 755.208 434.644 755.125C433.894 755.042 433.352 754.958 433.019 754.875V785H417.269V698.375ZM433.019 740.75C433.519 740.917 434.435 741.083 435.769 741.25C437.185 741.333 438.144 741.375 438.644 741.375C440.477 741.375 442.227 741.125 443.894 740.625C445.56 740.125 447.019 739.292 448.269 738.125C449.602 736.875 450.644 735.208 451.394 733.125C452.144 730.958 452.519 728.25 452.519 725C452.519 722.25 452.144 719.917 451.394 718C450.727 716.083 449.769 714.583 448.519 713.5C447.352 712.333 445.977 711.5 444.394 711C442.81 710.5 441.144 710.25 439.394 710.25C436.81 710.25 434.685 710.458 433.019 710.875V740.75ZM518.214 738.375L519.464 726H518.839L514.089 739.25L489.214 785H476.839V697.5H492.589V743.25L491.214 756H491.839L496.839 742.375L521.714 697.5H533.964V785H518.214V738.375ZM601.198 739.875L602.948 723.125H602.323L597.698 738.125L583.448 768.875H578.198L563.073 738L558.448 722.875H557.698L560.073 739.75V785H545.198V697.5H560.323L578.573 735.375L581.573 746.25H582.073L584.948 735.125L602.073 697.5H616.948V785H601.198V739.875ZM335.25 824H314.5V897H298.75V824H278V809.5H335.25V824ZM341.829 809.5H385.579V824H357.579V845.5H382.954V860H357.579V882.5H386.079V897H341.829V809.5ZM434.04 824H411.29V897H395.54V809.5H449.79V897H434.04V824ZM498.592 824H485.342C484.758 839.833 483.967 853.083 482.967 863.75C481.967 874.333 480.05 882.417 477.217 888C476.217 890 475.05 891.667 473.717 893C472.467 894.25 471.175 895.25 469.842 896C468.592 896.667 467.3 897.125 465.967 897.375C464.633 897.708 463.425 897.875 462.342 897.875C460.592 897.875 459.05 897.708 457.717 897.375C456.383 897.125 455.133 896.708 453.967 896.125L455.717 881.875C457.217 882.458 458.717 882.5 460.217 882C461.717 881.417 462.967 880.042 463.967 877.875C464.967 876.042 465.842 873.375 466.592 869.875C467.342 866.292 467.967 861.708 468.467 856.125C469.05 850.542 469.467 843.917 469.717 836.25C470.05 828.583 470.3 819.667 470.467 809.5H514.342V897H498.592V824ZM523.667 853.25C523.667 838.417 526.209 827.125 531.292 819.375C536.375 811.625 544.125 807.75 554.542 807.75C559.959 807.75 564.625 808.833 568.542 811C572.459 813.083 575.667 816.125 578.167 820.125C580.667 824.042 582.5 828.833 583.667 834.5C584.917 840.083 585.542 846.333 585.542 853.25C585.542 868.083 582.917 879.375 577.667 887.125C572.5 894.875 564.792 898.75 554.542 898.75C549.042 898.75 544.334 897.708 540.417 895.625C536.584 893.458 533.417 890.417 530.917 886.5C528.417 882.5 526.584 877.708 525.417 872.125C524.25 866.458 523.667 860.167 523.667 853.25ZM540.167 853.25C540.167 857.667 540.417 861.792 540.917 865.625C541.417 869.375 542.25 872.625 543.417 875.375C544.584 878.125 546.042 880.292 547.792 881.875C549.625 883.458 551.875 884.25 554.542 884.25C559.375 884.25 563 881.792 565.417 876.875C567.834 871.958 569.042 864.083 569.042 853.25C569.042 849 568.792 845 568.292 841.25C567.792 837.417 566.959 834.125 565.792 831.375C564.709 828.542 563.25 826.333 561.417 824.75C559.584 823.083 557.292 822.25 554.542 822.25C544.959 822.25 540.167 832.583 540.167 853.25Z" fill="url(#paint2_linear_38_5840)"/>
<defs>
<filter id="filter0_f_38_5840" x="0.399994" y="-7.60001" width="953.201" height="942.679" filterUnits="userSpaceOnUse" color-interpolation-filters="sRGB">
<feFlood flood-opacity="0" result="BackgroundImageFix"/>
<feBlend mode="normal" in="SourceGraphic" in2="BackgroundImageFix" result="shape"/>
<feGaussianBlur stdDeviation="126.3" result="effect1_foregroundBlur_38_5840"/>
</filter>
<linearGradient id="paint0_linear_38_5840" x1="511" y1="554.1" x2="511" y2="603.336" gradientUnits="userSpaceOnUse">
<stop stop-color="#E13320"/>
<stop offset="0.651042" stop-color="#F19127"/>
<stop offset="1" stop-color="#FED832"/>
</linearGradient>
<linearGradient id="paint1_linear_38_5840" x1="404.937" y1="254.775" x2="405.282" y2="537.854" gradientUnits="userSpaceOnUse">
<stop offset="0.015625" stop-color="#79C95B"/>
<stop offset="0.259147" stop-color="#58A03C"/>
<stop offset="0.760991" stop-color="#57A03C"/>
<stop offset="0.94273" stop-color="#C4C435"/>
<stop offset="1" stop-color="#FED832"/>
</linearGradient>
<linearGradient id="paint2_linear_38_5840" x1="450" y1="830" x2="450" y2="897" gradientUnits="userSpaceOnUse">
<stop stop-color="#E13320"/>
<stop offset="0.741135" stop-color="#F19127"/>
<stop offset="1" stop-color="#FED832"/>
</linearGradient>
</defs>
</svg>
