<svg width="1164" height="1000" viewBox="0 0 1164 1000" fill="none" xmlns="http://www.w3.org/2000/svg">
<g opacity="0.2" filter="url(#filter0_f_38_4680)">
<circle cx="582" cy="538" r="371" fill="#FFFBDE"/>
</g>
<circle cx="723" cy="564" r="301" fill="#DF231D"/>
<path opacity="0.28" d="M998.274 643.267C998.332 645.008 994.815 646.651 989.508 647.67C986.832 648.183 984.782 650.375 984.453 653.085C983.798 658.449 982.4 662.069 980.659 662.129C978.916 662.188 977.276 658.67 976.257 653.366C975.741 650.686 973.548 648.636 970.84 648.307C965.474 647.653 961.843 646.257 961.783 644.513C961.723 642.763 965.248 641.12 970.554 640.108C973.238 639.595 975.288 637.4 975.618 634.687C976.271 629.32 977.67 625.699 979.41 625.639C981.15 625.58 982.793 629.098 983.812 634.409C984.328 637.092 986.525 639.138 989.236 639.468C994.594 640.115 998.216 641.516 998.274 643.267Z" fill="#FFFBDE"/>
<path d="M468.751 479.58C468.826 480.917 466.149 482.239 462.09 483.111C460.042 483.552 458.504 485.275 458.297 487.358C457.887 491.49 456.875 494.297 455.538 494.372C454.2 494.448 452.879 491.773 452.005 487.715C451.565 485.666 449.844 484.129 447.759 483.921C443.624 483.511 440.811 482.498 440.735 481.161C440.659 479.816 443.339 478.494 447.398 477.624C449.45 477.186 450.989 475.465 451.197 473.377C451.608 469.24 452.618 466.434 453.956 466.359C455.293 466.283 456.614 468.958 457.487 473.021C457.928 475.073 459.653 476.609 461.74 476.815C465.868 477.222 468.673 478.235 468.751 479.58Z" fill="#FFFBDE"/>
<path d="M404.959 620.383C405.104 621.897 403.995 623.236 402.483 623.382C400.971 623.525 399.629 622.416 399.485 620.905C399.341 619.394 400.45 618.051 401.962 617.908C403.473 617.763 404.814 618.872 404.959 620.383Z" fill="#FFFBDE"/>
<path d="M905.201 208.911C905.223 208.911 905.251 208.911 905.279 208.911C905.251 208.911 905.229 208.911 905.201 208.911ZM906.037 208.897C906.08 208.897 906.115 208.897 906.15 208.897C906.115 208.897 906.072 208.897 906.037 208.897ZM907.148 208.869C907.17 208.869 907.191 208.869 907.212 208.869C907.198 208.869 907.17 208.869 907.148 208.869ZM907.375 208.861C907.396 208.861 907.432 208.861 907.453 208.861C907.432 208.861 907.403 208.861 907.375 208.861ZM908.366 208.826C908.387 208.819 908.402 208.819 908.422 208.819C908.408 208.819 908.387 208.819 908.366 208.826ZM909.095 208.783C909.109 208.783 909.124 208.783 909.145 208.783C909.13 208.783 909.109 208.783 909.095 208.783ZM909.314 208.769C909.329 208.769 909.343 208.769 909.364 208.769C909.35 208.769 909.329 208.769 909.314 208.769ZM909.81 208.741C909.824 208.734 909.846 208.734 909.852 208.734C909.838 208.734 909.824 208.734 909.81 208.741ZM910.638 208.677C910.652 208.677 910.66 208.677 910.674 208.677C910.667 208.677 910.652 208.677 910.638 208.677ZM911.573 208.599C911.581 208.599 911.573 208.599 911.581 208.599H911.573ZM979.73 135.076C979.73 135.041 979.73 135.005 979.73 134.963C979.73 134.998 979.73 135.041 979.73 135.076ZM979.737 134.325C979.737 134.304 979.737 134.29 979.737 134.269C979.737 134.283 979.737 134.304 979.737 134.325Z" fill="#FFFBDE"/>
<path fill-rule="evenodd" clip-rule="evenodd" d="M645.249 795.479C638.041 795.479 630.781 795.206 623.474 794.647C593.8 792.377 565.555 785.591 539.356 775.01L539.334 775L539.254 774.968L538.855 774.806L538.775 774.774C538.572 774.692 538.369 774.609 538.166 774.526C532.139 772.06 526.222 769.392 520.422 766.532C525.622 769.098 530.922 771.51 536.306 773.758C536.925 774.017 537.545 774.272 538.166 774.526C538.369 774.608 538.572 774.692 538.775 774.774L538.855 774.806L539.254 774.968L539.334 775L539.356 775.01C540.041 775.286 540.727 775.559 541.414 775.831C541.843 770.492 542.895 765.123 544.571 759.738C545.758 755.923 547.256 752.101 549.067 748.279C565.37 713.849 579.319 680.56 589.406 652.008C591.083 647.256 591.444 637.052 590.169 626.495C588.842 615.53 585.752 604.191 580.533 598.187C577.475 594.667 574.294 593.693 571.71 593.693C570.947 593.693 570.233 593.779 569.591 593.909C568.434 594.145 567.26 594.251 566.076 594.251C556.345 594.251 546.01 586.885 538.238 581.339L536.974 580.435C529.317 574.991 522.195 572.319 514.769 572.319C509.818 572.319 504.728 573.508 499.257 575.855C496.505 577.039 493.75 577.52 491.096 577.52C481.816 577.52 473.744 571.651 471.028 569.434C469.909 568.523 468.777 567.573 467.629 566.606C462.966 562.691 457.765 558.326 451.928 555.328C447.626 553.118 442.983 551.65 437.954 551.65C435.337 551.65 432.61 552.048 429.78 552.949C429.525 553.027 429.247 553.115 428.936 553.115C427.997 553.115 426.755 552.31 424.95 548.042C422.346 541.88 422.09 535.337 424.267 530.541C424.768 529.437 425.389 528.435 426.129 527.542C427.777 525.545 430.013 524.073 432.81 523.151C434.181 522.7 435.588 522.253 437.016 521.801C449.101 517.984 462.8 513.656 468.655 500.683C475.468 485.598 482.868 469.899 490.024 454.718C497.679 438.476 505.596 421.683 513.011 405.186C517.542 395.112 517.745 385.879 513.6 378.481C510.521 372.982 505.892 370.11 500.514 370.11C497.959 370.11 495.233 370.762 492.423 372.087C489.869 373.292 487.513 373.901 485.238 373.901C481.851 373.901 478.644 372.546 475.24 369.786C474.822 369.446 474.396 369.069 473.959 368.685C472.173 367.108 469.371 364.637 466.15 364.637C464.482 364.637 462.699 365.302 460.889 367.096C456.784 371.167 457.733 376.264 458.5 380.359C458.708 381.468 458.903 382.516 459.006 383.516C459.242 385.752 459.905 388.008 460.549 390.189C462.2 395.806 463.044 399.391 459.71 402.263C455.94 405.503 449.563 410.003 443.173 410.003C441.08 410.003 438.984 409.517 436.98 408.349C436.178 407.882 435.37 407.422 434.568 406.963C424.618 401.295 419.191 397.579 423.319 387.097C426.137 379.941 426.866 373.81 425.501 368.539C430.432 361.908 435.654 355.495 441.13 349.339C447.119 349.227 453.115 346.503 459.196 343.4L459.733 343.127L460.099 342.644C460.782 341.738 462.797 341.341 464.742 340.957C469.138 340.087 476.497 338.633 474.978 327.925C474.487 324.477 473.474 321.683 471.947 319.574C480.422 312.546 489.323 306 498.572 299.997C500.992 302.835 503.975 305.073 506.87 306.945C516.615 313.244 528.982 324.446 532.567 342.039C534.417 351.109 540.446 357.011 546.278 362.721C547.178 363.603 548.08 364.481 548.955 365.369C554.148 370.621 558.6 373.135 562.781 373.135C563.464 373.135 564.141 373.068 564.812 372.935C570.158 371.873 574.605 366.582 578.806 356.287C584.249 342.951 590.504 329.451 596.556 316.399C600.098 308.76 603.442 301.544 606.643 294.347C612.151 281.954 614.539 269.745 613.787 257.23C626.133 255.559 638.721 254.703 651.47 254.703C657.247 254.703 663.05 254.88 668.892 255.234C670.331 255.312 671.786 255.425 673.237 255.531C674.688 255.645 676.158 255.758 677.606 255.899C680.253 256.147 682.888 256.423 685.507 256.742C683.15 264.474 681.888 271.604 681.215 276.779C680.301 283.823 683.122 292.168 690.148 293.762C690.74 293.895 691.295 293.96 691.815 293.96C696.463 293.957 698.326 288.959 699.607 285.534C699.955 284.602 700.284 283.722 700.635 282.961C703.021 277.762 705.368 272.528 707.713 267.297C708.671 265.16 709.627 263.025 710.588 260.89C713.49 261.506 716.38 262.169 719.244 262.872C719.065 263.697 718.792 264.623 718.418 265.671C716.778 270.275 715.557 275.639 714.264 281.318C710.058 299.802 705.706 318.918 686.546 319.458C683.82 319.536 681.229 322.896 680.478 325.185C673.19 347.453 662.738 370.998 647.589 399.28C641.876 409.939 648.377 422.45 657.748 429.303C659.652 430.695 661.47 431.396 663.173 431.396C663.819 431.396 664.45 431.294 665.063 431.092C669.098 429.757 670.676 424.671 672.203 419.748C672.764 417.944 673.294 416.238 673.899 414.846C678.816 403.532 683.355 395.608 689.516 393.72C690.521 393.411 691.599 393.258 692.755 393.258C696.838 393.258 701.887 395.193 708.054 399.11C712.677 402.05 717.637 403.468 722.483 403.468C730.939 403.465 739.038 399.142 744.329 391.035C748.48 384.679 755.863 380.998 764.096 380.998C765.186 380.998 766.296 381.062 767.415 381.194C777.217 382.356 785.193 388.372 788.228 396.888C788.529 397.737 788.563 399.812 787.764 403.091C784.539 416.318 768.3 433.208 752.306 439.971C748.558 441.559 743.835 443 739.059 443C735.771 443 732.458 442.317 729.417 440.53C722.296 436.343 714.542 434.327 706.942 434.327C693.635 434.327 680.805 440.504 672.692 451.996C652.732 480.27 645.446 507.196 649.785 536.859C653.526 556.031 670.082 576.115 689.145 584.616C695.59 587.487 701.931 588.923 708.015 588.923C714.786 588.923 721.243 587.145 727.174 583.596C729.695 582.09 731.972 581.333 733.987 581.333C735.184 581.333 736.285 581.599 737.29 582.133C740.93 584.065 743.433 589.65 743.823 596.71C744.127 602.189 744.542 607.86 745.347 613.416C747.258 626.615 751.377 639.179 761.437 647.049C771.792 655.147 778.115 667.883 778.349 681.118L778.385 681.517C778.681 683.237 778.974 684.963 779.265 686.698C780.582 694.49 781.945 702.549 783.713 710.188C785.674 718.658 791.64 726.632 800.237 729.236C802.132 729.81 804.155 730.122 806.292 730.122C807.357 730.122 808.45 730.047 809.568 729.883C823.694 727.561 835.955 717.716 844.094 702.157C847.585 695.485 850.108 688.126 851.55 680.715C853.047 672.994 853.372 665.212 852.383 658.084C850.368 642.933 848.122 630.475 845.315 618.872C838.414 590.378 838.593 567.243 846.029 547.439C847.933 542.376 850.309 537.533 853.161 532.872C861.816 518.737 858.313 500.688 845.017 490.889C829.476 479.441 814.437 467.622 803.073 458.605C802.403 458.074 801.709 457.621 801.036 457.182C798.077 455.247 796.591 454.274 799.394 448.53C800.997 445.243 802.008 444.942 802.117 444.918C802.146 444.914 802.174 444.911 802.205 444.911C802.87 444.911 804.321 446.116 805.3 446.933C805.832 447.377 806.37 447.824 806.915 448.235C810.68 451.067 814.489 454.009 818.171 456.852C822.251 460.002 826.47 463.26 830.594 466.342C834.69 469.661 839.239 471.34 844.147 471.34C844.931 471.34 845.723 471.296 846.523 471.21C854.102 470.409 862.187 465.511 868.153 458.116C872.892 452.243 874.992 445.929 874.235 439.853C873.516 434.104 870.226 428.885 864.718 424.756C863.67 423.972 862.616 423.188 861.556 422.404C856.55 418.694 851.373 414.856 846.73 410.426C845.601 409.346 844.225 408.648 842.892 407.971C839.691 406.342 838.23 405.597 839.704 401.245C840.581 398.649 841.535 397.553 842.132 397.395C842.218 397.371 842.308 397.36 842.407 397.36C843.879 397.36 846.668 399.83 848.208 401.195C852.718 405.194 857.625 407.313 862.283 407.313C863.14 407.313 863.987 407.243 864.823 407.098C867.341 406.664 869.6 406.446 871.699 406.446C880.232 406.446 886.066 410.034 895.581 417.154C900.005 421.415 904.225 422.64 907.609 422.64C908.268 422.64 908.884 422.596 909.471 422.519C912.622 429.625 915.482 436.874 918.045 444.264C917.303 441.366 916.528 438.482 915.704 435.617C915.451 434.737 915.193 433.859 914.93 432.983C915.192 433.859 915.45 434.737 915.704 435.617C924.784 467.064 928.499 500.633 925.854 535.194C925.642 538.033 925.387 540.867 925.09 543.682C909.811 687.324 788.296 795.479 645.249 795.479ZM382.67 556.166C384.765 558.035 386.841 559.904 388.904 561.763C402.967 574.43 416.044 580.801 427.918 580.801C431.156 580.801 434.308 580.326 437.362 579.376C438.018 579.174 438.676 579.08 439.333 579.08C445.304 579.08 451.243 586.898 455.312 592.257C457.578 595.246 456.453 597.568 453.35 602.15C452.165 603.903 450.936 605.715 450.22 607.655C442.31 629.011 445.878 674.671 466.912 691.649C480.412 701.643 487.838 716.166 492.203 731.093C494.405 738.625 495.828 746.261 496.858 753.472C424.201 708.509 374.183 631.709 364.802 544.04C364.737 543.436 364.675 542.831 364.614 542.226C364.543 541.521 364.471 540.817 364.405 540.111C364.299 538.956 364.198 537.799 364.105 536.641C364.072 536.23 364.04 535.819 364.009 535.409C363.919 534.23 363.837 533.05 363.763 531.868C363.736 531.437 363.709 531.007 363.684 530.576C363.613 529.369 363.549 528.161 363.494 526.95C363.478 526.601 363.462 526.252 363.448 525.902C363.393 524.58 363.345 523.257 363.309 521.931C363.302 521.693 363.295 521.454 363.29 521.216C363.253 519.796 363.227 518.374 363.212 516.949L363.208 516.482C363.195 514.985 363.193 513.485 363.204 511.983L363.206 511.694C363.22 510.139 363.245 508.582 363.283 507.022L363.286 506.884C363.326 505.273 363.381 503.66 363.449 502.044V502.041L363.449 502.038V502.038V502.032V502.031V502.029V502.028V502.026V502.024V502.022V502.021L363.45 502.019V502.018L363.457 501.843C363.454 501.9 363.452 501.96 363.45 502.018V502.019L363.449 502.021V502.022V502.024V502.026V502.028V502.029V502.031V502.032V502.038V502.038L363.449 502.041V502.044C363.381 503.66 363.326 505.273 363.286 506.884L363.283 507.022C363.245 508.582 363.219 510.139 363.206 511.694L363.204 511.983C363.194 513.485 363.195 514.985 363.208 516.482L363.212 516.949C363.228 518.374 363.253 519.796 363.29 521.216C363.295 521.454 363.302 521.693 363.309 521.931C363.345 523.257 363.392 524.58 363.448 525.902C363.462 526.252 363.478 526.601 363.494 526.95C363.537 527.869 363.583 528.786 363.634 529.702C363.65 529.993 363.667 530.285 363.684 530.576C363.709 531.007 363.736 531.437 363.763 531.868C363.803 532.507 363.845 533.146 363.889 533.781C363.928 534.325 363.967 534.867 364.009 535.409C364.04 535.819 364.072 536.23 364.105 536.641C364.198 537.799 364.298 538.954 364.405 540.111C364.428 540.352 364.451 540.592 364.474 540.834C364.475 540.834 364.476 540.834 364.477 540.836C364.521 541.3 364.567 541.763 364.614 542.226C364.675 542.831 364.737 543.436 364.802 544.04C367.089 565.341 371.777 586.003 378.599 605.723C373.669 586.273 370.775 566.067 370.144 545.367C374.426 548.893 378.585 552.526 382.67 556.166ZM868.653 587.28C867.247 587.28 865.729 587.74 864.106 588.656C850.316 596.438 852.492 615.67 853.206 621.99L853.25 622.387L853.411 622.753C854.003 624.095 854.338 626.126 854.662 628.087C855.328 632.111 856.016 636.274 859.292 637.873C860.073 638.252 860.907 638.444 861.803 638.444C863.221 638.444 864.794 637.966 866.557 637.008C873.308 633.329 880.636 624.53 877.173 603.493C877.039 602.696 876.925 601.818 876.798 600.901C876.111 595.742 875.333 589.897 871.327 587.903C870.491 587.487 869.598 587.28 868.653 587.28ZM519.692 766.172L519.687 766.171L519.682 766.169C519.686 766.171 519.686 766.171 519.687 766.171C519.688 766.171 519.688 766.171 519.692 766.172ZM363.468 501.579L363.469 501.577V501.576V501.574V501.573V501.571V501.57V501.569L363.476 501.415C363.474 501.466 363.471 501.519 363.469 501.569V501.57V501.571V501.573V501.574V501.576V501.577L363.468 501.579ZM363.49 501.105V501.103V501.101V501.098L363.49 501.097V501.096V501.095V501.094V501.088V501.087C363.492 501.051 363.493 501.016 363.496 500.978L363.49 501.087V501.088V501.094V501.095V501.096V501.097L363.49 501.098V501.101V501.103V501.105ZM662.077 232.515C656.234 232.154 650.434 231.977 644.657 231.984C650.426 231.984 656.242 232.161 662.077 232.515Z" fill="#FFFBDE"/>
<path d="M780.98 681.071C780.734 667.115 773.991 653.522 763.059 644.975C749.027 634.002 747.319 612.188 746.452 596.566C745.756 583.965 738.644 573.664 725.82 581.337C696.357 598.965 658.119 565.796 652.367 536.355C647.782 504.974 657.168 478.549 674.843 453.516C687.108 436.138 710.402 432.407 728.082 442.8C748.916 455.05 785.168 424.853 790.323 403.715C790.909 401.305 791.424 398.026 790.712 396.01C783.454 375.659 753.548 372.099 742.124 389.597C734.724 400.926 720.967 404.198 709.465 396.889C688.324 383.454 680.635 392.736 671.48 413.797C668.528 420.587 667.536 433.198 659.302 427.176C651.21 421.259 644.728 410.19 649.908 400.524C662.541 376.947 674.536 351.808 682.98 326.006C683.531 324.321 685.424 322.124 686.62 322.093C714.203 321.315 714.032 285.815 720.9 266.556C723.319 259.767 722.117 256.487 717.854 253.4C713.503 250.257 711.136 253.266 708.997 258.009C705.409 265.957 701.873 273.949 698.24 281.863C696.373 285.923 695.327 292.236 690.728 291.192C685.343 289.971 683.048 283.125 683.829 277.119C685.589 263.546 689.73 248.899 697.087 236.854C797.549 255.646 877.698 327.06 910.554 419.622C906.437 420.705 901.826 419.567 897.286 415.147C884.868 405.839 878.1 402.133 864.373 404.501C859.511 405.342 854.303 403.081 849.957 399.225C845.539 395.31 840.406 390.945 837.208 400.402C834.193 409.308 841.744 409.31 844.909 412.332C850.652 417.814 857.035 422.29 863.136 426.865C873.855 434.898 874.248 446.365 866.105 456.463C858.161 466.308 844.047 473.848 832.248 464.296C824.266 458.325 816.446 452.108 808.499 446.128C804.73 443.296 801.345 438.523 797.024 447.375C792.446 456.762 797.951 457.906 801.433 460.669C815.288 471.66 829.221 482.524 843.452 493.011C855.7 502.034 858.756 518.69 850.915 531.496C834.741 557.911 835.089 587.844 842.751 619.493C845.888 632.441 848.007 645.162 849.769 658.432C853.423 684.766 838.296 722.49 809.139 727.283C797.551 728.961 788.754 720.307 786.277 709.594C784.14 700.358 782.611 690.557 780.98 681.071Z" fill="#57A03C"/>
<path d="M409.185 359.421C413.297 358.492 417.203 359.045 420.455 363.767C424.974 370.329 424.035 378.09 420.868 386.131C415.247 400.399 425.82 404.888 435.65 410.624C443.932 415.456 453.807 410.816 461.428 404.26C468.127 398.493 462.363 390.262 461.625 383.241C461.112 378.331 458.723 372.951 462.742 368.966C466.894 364.85 470.484 369.321 473.58 371.829C479.78 376.861 485.962 378.048 493.547 374.467C500.186 371.336 506.984 372.063 511.302 379.769C515.576 387.398 514.143 396.247 510.608 404.107C496.218 436.108 480.312 468.466 466.255 499.599C460.221 512.965 444.566 516.499 431.984 520.651C419.359 524.816 418.013 538.399 422.523 549.067C424.382 553.466 426.572 556.729 430.576 555.457C446.51 550.394 458.567 562.665 469.363 571.475C477.651 578.242 489.377 582.965 500.298 578.278C513.364 572.667 523.623 574.176 535.447 582.583C544.714 589.175 557.733 598.998 570.113 596.493C586.258 593.224 590.999 639.581 586.92 651.133C575.752 682.743 561.272 716.348 546.684 747.15C542.39 756.221 539.714 765.463 538.857 774.788C525.239 769.258 512.179 762.704 499.76 755.224C496.47 730.828 489.506 705.101 468.48 689.531C448.994 673.803 444.799 629.866 452.688 608.571C454.752 603.001 462.579 597.477 457.409 590.666C452.021 583.567 444.799 574.305 436.579 576.86C419.733 582.1 402.55 570.51 390.666 559.807C382.081 552.073 373.427 544.302 364.176 537.289C362.955 522.532 362.868 507.491 364.032 492.255C367.788 443.122 383.946 397.907 409.185 359.421Z" fill="#57A03C"/>
<path d="M606.371 234.609C613.479 254.726 613.011 273.534 604.237 293.278C595.431 313.081 584.939 334.284 576.368 355.29C569.181 372.902 561.804 374.62 550.829 363.518C544.507 357.126 537.112 351.144 535.149 341.513C531.929 325.718 521.501 313.268 508.301 304.733C500.992 300.005 493.282 293.212 496.99 279.212C497.528 277.182 498.084 275.063 498.697 272.918C531.051 253.234 567.563 239.935 606.371 234.609Z" fill="#57A03C"/>
<path d="M457.998 341.056C448.89 345.704 441.119 348.896 433.313 344.915C430.019 343.234 427.38 340.243 427.025 336.031C427 335.742 426.989 335.465 426.989 335.2C428.765 333.036 430.563 330.89 432.401 328.782C433.058 328.505 433.705 328.239 434.299 327.943C439.574 325.318 444.992 323.225 450.328 320.741C459.821 316.321 470.394 314.373 472.367 328.296C474.185 341.108 461.607 336.28 457.998 341.056Z" fill="#57A03C"/>
<path d="M855.823 621.694C854.6 610.883 854.794 596.934 865.399 590.949C873.331 586.473 873.542 597.656 874.575 603.921C876.345 614.689 876.33 628.684 865.295 634.695C856.451 639.509 858.339 627.422 855.823 621.694Z" fill="#57A03C"/>
<path d="M660.896 313.576C662.542 322.709 665.647 336.377 655.474 341.65C649.087 344.96 648.963 335.162 648.389 329.987C647.365 320.795 643.409 306.745 652.793 300.712C660.875 295.513 657.547 310.843 660.896 313.576Z" fill="#57A03C"/>
<path d="M642.82 335.318C643.758 341.349 642.695 345.986 637.596 347.876C634.124 349.162 631.639 347.897 630.782 343.208C629.711 337.356 631.211 332.378 635.412 329.548C639.91 326.518 641.721 330.446 642.82 335.318Z" fill="#57A03C"/>
<path d="M783.611 680.822C783.897 682.478 784.177 684.148 784.46 685.82C785.763 693.537 787.113 701.516 788.845 709.002C790.845 717.651 797.923 726.235 808.763 724.677C837.115 720.016 850.456 682.541 847.161 658.793C845.143 643.611 842.996 631.685 840.191 620.113C831.177 582.882 833.872 554.286 848.669 530.121C855.885 518.338 852.969 503.296 841.89 495.133C826.282 483.633 811.197 471.777 799.798 462.734C799.315 462.349 798.751 461.98 798.154 461.591C794.836 459.42 789.82 456.14 794.659 446.22C796.55 442.34 798.569 440.289 801.013 439.767C804.132 439.102 806.647 441.198 808.672 442.886C809.137 443.276 809.605 443.665 810.082 444.023C813.876 446.876 817.696 449.828 821.39 452.682C825.456 455.822 829.657 459.068 833.828 462.185C837.533 465.185 841.591 466.444 845.966 465.971C852.185 465.314 858.946 461.139 864.053 454.809C867.873 450.076 869.584 445.129 869.007 440.504C868.47 436.21 865.895 432.222 861.558 428.973C860.519 428.192 859.471 427.416 858.419 426.637C853.284 422.83 847.971 418.894 843.092 414.236C842.521 413.69 841.542 413.194 840.503 412.664C837.239 411.005 831.776 408.228 834.713 399.554C836.123 395.385 838.109 393.012 840.779 392.303C844.889 391.215 848.669 394.562 851.705 397.254C855.76 400.854 860.213 402.546 863.926 401.908C878.638 399.37 886.214 403.556 898.865 413.039L899.127 413.26C902.618 416.66 906.164 417.959 909.669 417.131C910.273 418.784 910.851 420.449 911.426 422.116C911.27 422.159 911.114 422.2 910.957 422.239C907.276 423.134 901.62 422.97 895.58 417.154C883.722 408.285 877.583 404.896 864.822 407.098C859.442 408.03 853.546 405.929 848.207 401.196C846.566 399.739 843.502 397.028 842.131 397.395C841.534 397.553 840.581 398.649 839.703 401.245C838.229 405.597 839.69 406.342 842.892 407.971C844.224 408.648 845.6 409.346 846.729 410.426C851.372 414.856 856.549 418.694 861.556 422.404C862.615 423.189 863.669 423.973 864.718 424.757C870.225 428.885 873.515 434.104 874.234 439.853C874.992 445.929 872.891 452.243 868.153 458.117C862.187 465.511 854.101 470.409 846.523 471.21C840.703 471.835 835.344 470.19 830.593 466.342C826.469 463.261 822.25 460.002 818.17 456.852C814.488 454.009 810.679 451.067 806.914 448.235C806.369 447.824 805.832 447.377 805.3 446.934C804.274 446.08 802.735 444.797 802.116 444.918C802.007 444.942 800.997 445.244 799.393 448.531C796.59 454.274 798.076 455.248 801.036 457.182C801.709 457.621 802.402 458.075 803.072 458.605C814.437 467.622 829.476 479.441 845.016 490.889C858.312 500.689 861.816 518.737 853.161 532.873C839.143 555.764 836.65 583.092 845.315 618.872C848.121 630.475 850.368 642.933 852.382 658.084C854.319 672.052 851.222 688.531 844.094 702.157C835.954 717.716 823.693 727.562 809.568 729.883C808.449 730.047 807.356 730.122 806.291 730.122C794.465 730.122 786.104 720.528 783.712 710.189C781.944 702.549 780.581 694.49 779.264 686.698C778.974 684.964 778.68 683.237 778.384 681.518L778.348 681.119C778.114 667.884 771.792 655.148 761.437 647.049C747.138 635.866 744.847 615.203 743.822 596.711C743.433 589.651 740.93 584.066 737.289 582.134C734.595 580.7 731.19 581.194 727.173 583.596C715.912 590.334 702.763 590.687 689.145 584.616C670.081 576.115 653.526 556.031 649.785 536.859C645.446 507.196 652.732 480.27 672.691 451.997C685.437 433.941 709.826 429.01 729.417 440.53C736.876 444.914 745.98 442.649 752.305 439.972C768.299 433.208 784.538 416.318 787.763 403.092C788.563 399.812 788.529 397.737 788.228 396.889C785.192 388.372 777.216 382.356 767.414 381.194C757.88 380.068 749.031 383.835 744.328 391.036C736.007 403.782 720.75 407.178 708.053 399.111C700.144 394.084 694.075 392.325 689.516 393.721C683.354 395.609 678.815 403.533 673.898 414.846C673.293 416.238 672.763 417.944 672.202 419.748C670.676 424.671 669.097 429.758 665.062 431.092C662.834 431.827 660.376 431.225 657.748 429.304C648.377 422.451 641.875 409.939 647.588 399.28C662.738 370.998 673.189 347.453 680.477 325.186C681.228 322.896 683.82 319.536 686.545 319.458C705.705 318.918 710.057 299.802 714.264 281.318C715.556 275.639 716.777 270.275 718.418 265.671C720.506 259.816 719.456 257.811 716.312 255.538C715.489 254.944 714.796 254.668 714.4 254.767C713.954 254.887 712.97 255.602 711.4 259.092C710.166 261.823 708.938 264.56 707.712 267.297C705.367 272.529 703.021 277.762 700.634 282.962C700.284 283.723 699.955 284.602 699.606 285.534C698.183 289.341 696.036 295.098 690.147 293.763C683.121 292.168 680.301 283.823 681.215 276.779C682.465 267.164 685.753 250.782 694.317 236.339C696.169 236.667 698.011 237.022 699.85 237.386C691.011 251.377 687.68 267.911 686.442 277.457C685.832 282.159 687.52 287.765 691.31 288.625C692.409 288.874 693.13 287.809 694.673 283.689C695.039 282.709 695.418 281.697 695.847 280.762C698.227 275.579 700.567 270.361 702.906 265.142C704.134 262.399 705.363 259.661 706.596 256.926C707.998 253.818 709.862 250.526 713.045 249.677C715.061 249.139 717.197 249.677 719.399 251.269C724.904 255.248 726.057 259.936 723.38 267.442C721.845 271.75 720.657 276.966 719.402 282.486C715.203 300.926 709.984 323.853 687.021 324.713C686.553 325.054 685.732 326.066 685.486 326.824C678.099 349.393 667.531 373.208 652.23 401.767C647.941 409.775 653.323 419.543 660.859 425.052C661.967 425.863 662.92 426.253 663.408 426.089C664.868 425.608 666.254 421.143 667.171 418.188C667.749 416.326 668.347 414.401 669.066 412.745C674.722 399.734 679.857 391.171 687.974 388.683C694.181 386.78 701.46 388.681 710.877 394.666C721.031 401.116 733.241 398.379 739.917 388.156C745.722 379.268 756.488 374.592 768.034 375.964C779.836 377.363 789.477 384.706 793.192 395.126C793.952 397.278 793.849 400.375 792.883 404.338C789.253 419.214 771.97 437.376 754.356 444.825C743.69 449.336 734.142 449.421 726.745 445.072C709.535 434.953 688.147 439.235 676.993 455.035C657.862 482.135 650.864 507.853 654.974 535.973C658.395 553.466 673.675 571.95 691.289 579.802C699.645 583.528 712.184 586.425 724.468 579.076C731.579 574.822 736.711 575.861 739.761 577.481C745.099 580.316 748.584 587.394 749.082 596.42C750.043 613.755 752.121 633.075 764.682 642.9C776.224 651.926 783.289 666.089 783.611 680.822Z" fill="#57A03C"/>
<path d="M439.444 573.782C447.903 573.782 454.766 582.827 459.507 589.072C464.295 595.381 460.491 601 457.716 605.103C456.656 606.668 455.656 608.143 455.161 609.485C447.74 629.52 451.494 672.435 470.134 687.483C493.277 704.614 499.672 733.594 502.642 756.942C500.698 755.802 498.769 754.641 496.856 753.457C493.782 731.96 487.218 706.684 466.912 691.65C445.877 674.672 442.31 629.012 450.22 607.655C450.936 605.715 452.165 603.903 453.35 602.151C456.453 597.568 457.578 595.247 455.312 592.258C450.796 586.309 443.975 577.328 437.362 579.377C423.107 583.811 406.801 577.883 388.904 561.764C381.072 554.708 373.054 547.485 364.49 540.846C364.265 538.503 364.071 536.152 363.906 533.794C374.08 541.32 383.377 549.693 392.431 557.849C408.851 572.639 423.442 578.187 435.798 574.347C437.042 573.96 438.26 573.782 439.444 573.782ZM536.309 773.74C537.254 764.541 539.922 755.28 544.305 746.023C560.532 711.754 574.408 678.639 584.438 650.256C587.399 641.874 585.054 611.42 576.558 601.644C574.06 598.77 571.978 598.801 570.638 599.074C557.684 601.701 544.679 592.408 535.18 585.626L533.921 584.731C522.696 576.749 513.258 575.578 501.337 580.699C491.146 585.074 478.569 582.389 467.697 573.516C466.559 572.589 465.409 571.624 464.24 570.645C454.421 562.398 444.269 553.871 431.374 557.969C424.365 560.193 421.266 552.856 420.098 550.094C416.93 542.6 416.695 534.478 419.47 528.363C421.69 523.474 425.732 519.94 431.159 518.149C432.55 517.689 433.979 517.237 435.43 516.78C447 513.124 458.967 509.341 463.854 498.516C470.685 483.389 478.093 467.672 485.257 452.472C492.904 436.252 500.81 419.478 508.204 403.027C510.869 397.107 513.167 388.489 509.004 381.058C505.777 375.301 500.956 373.887 494.672 376.851C486.439 380.735 479.21 379.79 471.922 373.876C471.448 373.494 470.968 373.071 470.475 372.638C466.884 369.469 466.04 369.407 464.596 370.838C462.576 372.842 462.933 375.393 463.677 379.391C463.895 380.554 464.119 381.756 464.246 382.966C464.433 384.726 464.999 386.658 465.601 388.704C467.216 394.191 469.228 401.022 463.145 406.257C452.821 415.14 442.316 417.562 434.323 412.898C433.537 412.442 432.748 411.99 431.958 411.541C422.797 406.322 412.414 400.407 418.417 385.166C421.788 376.61 421.746 370.285 418.286 365.261C415.308 360.935 411.96 361.047 406.987 362.831C408.34 360.701 409.718 358.588 411.126 356.498C415.177 356.168 419.259 357.387 422.625 362.275C427.108 368.781 427.333 376.901 423.319 387.098C419.191 397.58 424.618 401.295 434.568 406.963C435.37 407.423 436.177 407.882 436.98 408.349C445.099 413.086 454.703 406.568 459.71 402.264C463.044 399.391 462.199 395.806 460.549 390.19C459.905 388.009 459.242 385.752 459.006 383.517C458.903 382.517 458.708 381.468 458.499 380.359C457.733 376.265 456.784 371.168 460.889 367.096C466.196 361.835 471.246 366.294 473.959 368.685C474.396 369.069 474.821 369.446 475.24 369.786C480.926 374.398 486.064 375.086 492.423 372.087C501.137 367.977 509.054 370.366 513.6 378.482C517.745 385.879 517.542 395.112 513.011 405.187C505.596 421.683 497.679 438.477 490.024 454.719C482.868 469.9 475.468 485.598 468.655 500.684C462.8 513.656 449.101 517.985 437.016 521.802C435.588 522.254 434.181 522.7 432.81 523.152C428.76 524.489 425.885 526.974 424.266 530.542C422.09 535.337 422.345 541.88 424.95 548.042C427.35 553.718 428.754 553.269 429.78 552.949C445.426 547.977 457.739 558.306 467.629 566.607C468.777 567.573 469.909 568.523 471.028 569.435C474.52 572.285 486.875 581.173 499.257 575.856C512.928 569.987 524.207 571.356 536.974 580.436L538.238 581.34C546.952 587.561 558.891 596.069 569.591 593.91C572.396 593.341 576.569 593.626 580.533 598.188C590.774 609.969 592.828 642.323 589.406 652.009C579.319 680.56 565.37 713.85 549.067 748.279C544.701 757.498 542.149 766.706 541.416 775.826C539.703 775.15 538.004 774.449 536.309 773.74Z" fill="#57A03C"/>
<path d="M502.043 270.92C501.152 273.776 500.395 276.639 499.68 279.344L499.534 279.887C496.525 291.254 501.435 297.157 509.731 302.521C520.322 309.368 533.777 321.6 537.729 340.988C539.255 348.474 544.457 353.566 549.961 358.956C550.885 359.86 551.804 360.758 552.7 361.667C557.319 366.335 560.941 368.334 563.785 367.769C567.139 367.101 570.551 362.57 573.927 354.295C579.415 340.848 585.699 327.291 591.775 314.182C595.309 306.564 598.645 299.366 601.829 292.208C610.196 273.385 610.84 254.969 603.695 234.981C605.468 234.72 607.244 234.468 609.027 234.24C616.278 255.148 615.461 274.509 606.642 294.347C603.441 301.545 600.097 308.76 596.555 316.399C590.503 329.452 584.247 342.951 578.805 356.287C574.604 366.582 570.157 371.874 564.811 372.936C564.14 373.068 563.463 373.135 562.78 373.135C558.599 373.135 554.146 370.622 548.954 365.369C548.079 364.482 547.177 363.604 546.277 362.721C540.445 357.011 534.416 351.109 532.566 342.04C528.98 324.446 516.614 313.245 506.869 306.946C498.94 301.817 490.361 293.955 494.443 278.537L494.585 277.997C494.848 277.002 495.117 275.987 495.395 274.96C497.591 273.582 499.808 272.238 502.043 270.92Z" fill="#57A03C"/>
<path d="M462.097 320.099C459.337 320.099 455.772 321.112 451.441 323.129C449.174 324.186 446.871 325.178 444.646 326.141C441.613 327.45 438.477 328.805 435.476 330.301C434.902 330.584 434.283 330.846 433.655 331.113C430.441 332.464 429.423 333.126 429.649 335.811C429.976 339.7 432.835 341.715 434.509 342.57C440.635 345.696 446.703 343.823 456.328 338.948C458.247 336.871 461.142 336.299 463.72 335.79C468.285 334.886 470.577 334.432 469.759 328.665C469.194 324.664 467.833 322.054 465.717 320.904C464.725 320.37 463.518 320.099 462.097 320.099ZM424.675 338.047C428.572 333.171 432.622 328.425 436.825 323.826C438.748 322.949 440.671 322.118 442.556 321.304C444.75 320.356 447.017 319.378 449.216 318.352C457.486 314.501 463.705 313.821 468.228 316.274C471.892 318.26 474.161 322.182 474.976 327.925C476.495 338.633 469.137 340.088 464.741 340.957C462.796 341.341 460.781 341.739 460.098 342.645L459.732 343.127L459.195 343.4C452.984 346.571 446.861 349.343 440.744 349.343C437.869 349.343 434.995 348.731 432.116 347.261C428.193 345.262 425.555 341.963 424.675 338.047Z" fill="#57A03C"/>
<path d="M858.398 621.029C859.143 622.899 859.507 625.095 859.857 627.227C860.177 629.151 860.769 632.731 861.602 633.137C861.758 633.212 862.49 633.223 864.035 632.378C871.676 628.219 874.347 618.786 871.972 604.346C871.832 603.502 871.707 602.57 871.578 601.6C871.194 598.723 870.477 593.366 868.976 592.618C868.589 592.424 867.714 592.665 866.693 593.242C859.52 597.292 856.804 606.382 858.398 621.029ZM861.802 638.444C860.906 638.444 860.072 638.252 859.291 637.873C856.015 636.273 855.326 632.111 854.661 628.087C854.337 626.126 854.002 624.095 853.41 622.753L853.249 622.387L853.205 621.989C852.491 615.67 850.315 596.438 864.105 588.656C866.818 587.121 869.249 586.87 871.326 587.903C875.331 589.897 876.11 595.742 876.797 600.901C876.924 601.817 877.038 602.695 877.172 603.493C880.634 624.529 873.307 633.329 866.556 637.008C864.793 637.966 863.219 638.444 861.802 638.444Z" fill="#57A03C"/>
<path d="M655.408 302.321C655.194 302.388 654.81 302.544 654.216 302.925C647.709 307.111 649.125 316.643 650.371 325.051C650.615 326.684 650.845 328.249 651.007 329.696C651.068 330.257 651.126 330.87 651.185 331.516C651.378 333.569 651.887 339.022 653.081 339.675C653.115 339.697 653.488 339.714 654.265 339.31C661.598 335.509 660.548 326.263 658.563 315.466L658.443 314.804C657.054 313.008 656.727 310.237 656.386 307.329C656.213 305.852 655.9 303.206 655.408 302.321ZM653.144 344.95C652.061 344.95 651.196 344.649 650.555 344.298C646.902 342.304 646.369 336.594 645.941 332.006C645.883 331.394 645.829 330.81 645.77 330.277C645.617 328.89 645.393 327.39 645.159 325.824C643.824 316.833 641.999 304.52 651.367 298.494C653.751 296.961 655.867 296.611 657.656 297.457C660.699 298.893 661.167 302.868 661.619 306.713C661.805 308.313 662.12 310.987 662.613 311.585L663.367 312.2L663.488 313.109L663.745 314.512C665.472 323.898 668.081 338.085 656.688 343.987C655.324 344.696 654.143 344.95 653.144 344.95Z" fill="#57A03C"/>
<path d="M638.245 331.119C638.11 331.119 637.666 331.205 636.884 331.734C632.605 334.616 632.847 339.864 633.371 342.733C633.644 344.213 634.124 345.28 634.664 345.586C635.189 345.883 636.152 345.603 636.679 345.405C639.026 344.535 641.28 342.715 640.231 335.808C639.26 331.555 638.323 331.139 638.283 331.124L638.245 331.119ZM635.243 350.987C634.088 350.987 633.021 350.712 632.057 350.164C630.07 349.035 628.77 346.853 628.191 343.683C626.9 336.642 628.996 330.693 633.94 327.364C636.191 325.848 638.307 325.464 640.229 326.226C643.386 327.481 644.645 331.433 645.391 334.736L645.424 334.912C646.676 342.99 644.349 348.183 638.51 350.346C637.354 350.774 636.263 350.987 635.243 350.987Z" fill="#57A03C"/>
<path d="M861.812 633.171C861.708 633.171 861.638 633.156 861.601 633.138C860.768 632.731 860.176 629.151 859.857 627.228C859.507 625.096 859.142 622.9 858.397 621.03C856.803 606.383 859.519 597.293 866.693 593.243C867.48 592.797 868.178 592.554 868.636 592.554C868.773 592.554 868.887 592.574 868.976 592.618C870.476 593.366 871.193 598.724 871.577 601.6C871.707 602.571 871.831 603.503 871.972 604.347C874.347 618.786 871.676 628.22 864.035 632.379C862.853 633.023 862.148 633.171 861.812 633.171Z" fill="#57A03C"/>
<path d="M800.235 729.237C791.639 726.632 785.672 718.658 783.711 710.189C781.943 702.549 780.58 694.49 779.263 686.698C778.973 684.964 778.679 683.237 778.383 681.518L778.347 681.119C778.113 667.884 771.791 655.148 761.435 647.049C751.375 639.179 747.256 626.615 745.345 613.417C747.03 612.773 748.719 612.11 750.388 611.433C752.073 623.979 755.692 635.871 764.681 642.9C776.223 651.926 783.288 666.089 783.61 680.822C783.896 682.478 784.176 684.148 784.459 685.82C785.762 693.537 787.112 701.516 788.844 709.002C790.678 716.927 796.776 724.802 806.127 724.862C804.185 726.347 802.22 727.806 800.235 729.237ZM843.47 690.224C847.188 679.505 848.451 668.096 847.16 658.793C845.142 643.611 842.995 631.685 840.19 620.113C834.107 594.987 833.356 573.794 838.059 555.24C840.77 552.69 843.418 550.095 846.028 547.439C838.591 567.243 838.412 590.378 845.314 618.872C848.12 630.475 850.367 642.933 852.381 658.084C853.37 665.212 853.046 672.994 851.548 680.715C848.928 683.948 846.233 687.122 843.47 690.224Z" fill="#57A03C"/>
<path d="M544.57 759.738C542.94 759.073 541.301 758.385 539.689 757.689C540.923 753.805 542.462 749.913 544.304 746.023C560.531 711.754 574.407 678.638 584.437 650.255C585.972 645.906 586.082 635.611 584.64 625.348C586.473 625.747 588.319 626.132 590.168 626.495C591.443 637.052 591.082 647.257 589.405 652.008C579.318 680.56 565.369 713.849 549.066 748.279C547.255 752.101 545.757 755.923 544.57 759.738ZM498.87 735.64C496.624 734.157 494.398 732.64 492.202 731.093C487.837 716.166 480.41 701.643 466.911 691.65C445.876 674.671 442.309 629.011 450.219 607.655C450.935 605.715 452.164 603.903 453.349 602.15C456.452 597.568 457.577 595.247 455.311 592.258C451.242 586.899 445.303 579.081 439.332 579.081C438.675 579.081 438.017 579.174 437.361 579.376C434.307 580.327 431.155 580.801 427.917 580.801C416.043 580.801 402.966 574.43 388.903 561.764C386.84 559.904 384.764 558.036 382.669 556.166C382.238 553.489 381.848 550.804 381.498 548.104C385.206 551.341 388.837 554.613 392.43 557.849C405.485 569.608 417.387 575.526 427.924 575.526C430.641 575.526 433.265 575.133 435.797 574.346C437.041 573.96 438.259 573.781 439.443 573.781C447.902 573.781 454.765 582.827 459.506 589.072C464.294 595.38 460.49 601 457.715 605.103C456.655 606.668 455.655 608.143 455.16 609.485C447.739 629.52 451.493 672.435 470.133 687.482C486.567 699.647 494.557 717.786 498.87 735.64ZM485.085 582.142C479.206 580.947 473.231 578.034 467.696 573.516C466.558 572.589 465.407 571.623 464.239 570.644C456.172 563.87 447.882 556.909 438.033 556.909C435.891 556.909 433.676 557.236 431.373 557.969C430.472 558.253 429.636 558.381 428.86 558.381C423.599 558.383 421.115 552.503 420.097 550.093C416.929 542.6 416.694 534.478 419.469 528.363C420.32 526.488 421.438 524.813 422.8 523.359C423.896 524.765 425.005 526.159 426.128 527.542C425.388 528.435 424.767 529.438 424.265 530.542C422.089 535.337 422.344 541.88 424.949 548.042C426.754 552.31 427.996 553.115 428.935 553.115C429.246 553.115 429.524 553.027 429.779 552.949C432.609 552.048 435.336 551.651 437.952 551.651C442.982 551.651 447.625 553.118 451.927 555.328C462.256 565.059 473.342 574.033 485.085 582.142Z" fill="#57A03C"/>
<path d="M861.802 638.444C860.906 638.444 860.072 638.252 859.291 637.873C856.015 636.273 855.326 632.111 854.661 628.087C854.337 626.126 854.002 624.095 853.41 622.753L853.249 622.387L853.205 621.99C852.491 615.67 850.315 596.438 864.105 588.656C865.728 587.74 867.246 587.28 868.652 587.28C869.597 587.28 870.49 587.487 871.326 587.903C875.331 589.897 876.11 595.742 876.797 600.901C876.924 601.817 877.038 602.696 877.172 603.493C880.634 624.53 873.307 633.329 866.556 637.008C864.793 637.966 863.219 638.444 861.802 638.444ZM868.636 592.554C868.179 592.554 867.48 592.797 866.693 593.242C859.52 597.292 856.804 606.382 858.398 621.029C859.143 622.899 859.507 625.096 859.857 627.227C860.177 629.151 860.769 632.731 861.602 633.137C861.639 633.156 861.708 633.17 861.812 633.17C862.148 633.17 862.854 633.022 864.035 632.378C871.676 628.219 874.347 618.786 871.972 604.346C871.832 603.502 871.707 602.57 871.578 601.6C871.194 598.723 870.477 593.366 868.976 592.618C868.888 592.574 868.773 592.554 868.636 592.554Z" fill="#57A03C"/>
<path d="M363.457 501.834C363.457 501.821 363.458 501.816 363.458 501.805C363.458 501.814 363.457 501.824 363.457 501.834ZM363.466 501.618C363.467 501.606 363.467 501.595 363.467 501.582C363.467 501.593 363.466 501.609 363.466 501.618ZM363.475 501.403C363.476 501.385 363.477 501.367 363.478 501.347C363.477 501.364 363.476 501.385 363.475 501.403ZM363.485 501.188C363.486 501.162 363.487 501.133 363.489 501.108C363.487 501.135 363.486 501.162 363.485 501.188ZM363.495 500.972C363.498 500.902 363.501 500.827 363.505 500.756C363.501 500.829 363.498 500.9 363.495 500.972ZM363.505 500.756C363.563 499.516 363.631 498.275 363.707 497.031V497.036C363.63 498.277 363.563 499.518 363.505 500.756ZM411.12 356.497C415.394 350.154 419.916 343.997 424.674 338.044C424.674 338.046 424.674 338.046 424.674 338.046C419.916 344 415.395 350.154 411.122 356.497C411.121 356.497 411.121 356.497 411.12 356.497ZM436.826 323.825C454.049 304.977 473.758 288.523 495.4 274.946C495.398 274.946 495.398 274.949 495.398 274.949C473.764 288.525 454.049 304.983 436.831 323.825C436.828 323.825 436.828 323.825 436.826 323.825ZM609.026 234.236C620.711 232.749 632.602 231.984 644.64 231.984C632.602 231.984 620.708 232.749 609.026 234.236Z" fill="#FFFBDE"/>
<path fill-rule="evenodd" clip-rule="evenodd" d="M378.6 605.723C371.435 585.016 366.624 563.27 364.477 540.836C366.393 542.322 368.279 543.833 370.144 545.367C370.775 566.067 373.669 586.273 378.6 605.723ZM363.634 529.703C363.125 520.578 363.057 511.353 363.449 502.044C363.451 501.975 363.454 501.902 363.458 501.834C363.458 501.824 363.459 501.814 363.459 501.805C363.462 501.743 363.464 501.679 363.467 501.618C363.467 501.609 363.468 501.593 363.468 501.582C363.471 501.525 363.474 501.462 363.477 501.403C363.477 501.385 363.478 501.364 363.479 501.347C363.481 501.292 363.483 501.242 363.486 501.188C363.488 501.162 363.488 501.135 363.49 501.108C363.492 501.063 363.494 501.016 363.496 500.972C363.499 500.9 363.502 500.829 363.506 500.756C363.564 499.518 363.631 498.277 363.708 497.036C363.05 508.047 363.036 518.94 363.634 529.703ZM918.045 444.264C915.483 436.874 912.622 429.625 909.471 422.519C909.996 422.448 910.491 422.353 910.958 422.239C911.114 422.2 911.277 422.158 911.433 422.113C912.672 425.707 913.832 429.326 914.93 432.983C916.049 436.711 917.075 440.476 918.045 444.264ZM425.501 368.539C424.92 366.299 423.962 364.214 422.625 362.274C419.594 357.873 415.985 356.445 412.339 356.445C411.934 356.445 411.528 356.463 411.123 356.497C415.396 350.154 419.917 344 424.675 338.046C425.555 341.962 428.193 345.262 432.117 347.261C434.996 348.731 437.87 349.343 440.745 349.343C440.873 349.343 441.002 349.341 441.13 349.339C435.654 355.495 430.432 361.908 425.501 368.539ZM436.832 323.825C454.05 304.983 473.765 288.525 495.399 274.949C495.121 275.979 494.851 276.998 494.586 277.997L494.444 278.537C491.852 288.323 494.363 295.066 498.572 299.997C489.323 306 480.422 312.547 471.947 319.574C470.932 318.17 469.694 317.069 468.229 316.275C466.464 315.317 464.439 314.836 462.133 314.836C458.536 314.836 454.257 316.004 449.218 318.352C447.018 319.378 444.752 320.356 442.557 321.304C440.675 322.117 438.754 322.947 436.832 323.825ZM719.244 262.873C716.38 262.169 713.49 261.506 710.588 260.891C710.857 260.291 711.128 259.692 711.4 259.092C712.971 255.602 713.955 254.887 714.401 254.767C714.456 254.753 714.516 254.746 714.582 254.746C714.989 254.746 715.604 255.029 716.313 255.538C718.894 257.4 720.065 259.086 719.244 262.873ZM613.787 257.23C613.335 249.712 611.749 242.087 609.027 234.236C620.709 232.749 632.604 231.984 644.641 231.984C644.649 231.984 644.649 231.984 644.654 231.984H644.657C650.426 231.984 656.242 232.161 662.077 232.515C662.988 232.565 663.905 232.628 664.824 232.692C665.357 232.735 665.889 232.77 666.421 232.812C667.872 232.925 669.342 233.039 670.791 233.181C684.939 234.476 698.758 236.805 712.169 240.083C708.095 239.092 704.006 238.186 699.859 237.372C698.023 237.004 696.171 236.664 694.32 236.331C690.364 243.007 687.53 250.094 685.507 256.742C682.888 256.424 680.253 256.148 677.606 255.9C676.158 255.758 674.688 255.645 673.237 255.532C671.786 255.425 670.331 255.312 668.892 255.234C663.051 254.88 657.247 254.703 651.47 254.703C638.721 254.703 626.133 255.56 613.787 257.23ZM713.41 240.395L713.399 240.388C713.405 240.395 713.405 240.395 713.41 240.395ZM712.602 240.189C712.566 240.183 712.533 240.175 712.501 240.167L712.498 240.166L712.495 240.166C712.464 240.158 712.434 240.15 712.4 240.14C712.429 240.15 712.462 240.158 712.495 240.166L712.498 240.166L712.501 240.167C712.536 240.175 712.571 240.183 712.602 240.189ZM712.371 240.139H712.371C712.345 240.13 712.32 240.122 712.295 240.116H712.294L712.292 240.115L712.289 240.114L712.286 240.113L712.283 240.113L712.28 240.112L712.278 240.111H712.277L712.275 240.111L712.272 240.11C712.248 240.103 712.223 240.097 712.198 240.091C712.223 240.097 712.248 240.103 712.272 240.11L712.275 240.111L712.277 240.111H712.278L712.28 240.112L712.283 240.113L712.286 240.113L712.289 240.114L712.292 240.115L712.294 240.116H712.295C712.32 240.122 712.345 240.13 712.371 240.139H712.371Z" fill="#FFFBDE"/>
<path d="M909.471 422.519C908.706 420.789 907.927 419.068 907.127 417.359C907.29 417.367 907.453 417.373 907.616 417.373C908.295 417.373 908.982 417.292 909.669 417.131C910.271 418.782 910.858 420.449 911.432 422.113C911.276 422.158 911.114 422.199 910.958 422.238C910.49 422.353 909.995 422.448 909.471 422.519ZM724.341 264.173C722.65 263.723 720.95 263.29 719.244 262.873C720.064 259.086 718.893 257.4 716.312 255.538C715.603 255.029 714.988 254.745 714.581 254.745C714.515 254.745 714.455 254.753 714.401 254.767C713.955 254.887 712.971 255.602 711.4 259.092C711.128 259.691 710.857 260.291 710.587 260.89C708.826 260.519 707.063 260.162 705.293 259.821C705.726 258.852 706.16 257.889 706.596 256.926C707.998 253.818 709.862 250.526 713.046 249.676C713.55 249.542 714.061 249.478 714.581 249.478C716.132 249.478 717.748 250.072 719.4 251.269C724.058 254.639 725.6 258.512 724.341 264.173ZM690.801 257.422C689.044 257.181 687.275 256.948 685.507 256.742C687.529 250.094 690.363 243.007 694.32 236.331C696.171 236.664 698.023 237.004 699.858 237.372C695.779 243.821 692.871 250.823 690.801 257.422Z" fill="#57A03C"/>
<path d="M370.144 545.367C368.279 543.833 366.393 542.322 364.477 540.837C364.253 538.492 364.057 536.139 363.891 533.782C365.969 535.319 368.009 536.89 370.018 538.486C370.032 540.787 370.075 543.08 370.144 545.367ZM420.893 374.922C421.064 371.201 420.195 368.034 418.287 365.26C416.501 362.669 414.583 361.669 412.262 361.669C410.708 361.669 408.972 362.118 406.974 362.835C408.331 360.701 409.711 358.593 411.121 356.497C411.122 356.497 411.122 356.497 411.123 356.497C411.528 356.464 411.934 356.445 412.34 356.445C415.985 356.445 419.595 357.873 422.625 362.274C423.962 364.214 424.92 366.299 425.501 368.539C423.933 370.648 422.402 372.767 420.893 374.922Z" fill="#57A03C"/>
<path d="M498.571 299.997C494.361 295.066 491.85 288.323 494.442 278.537L494.584 277.997C494.849 276.998 495.119 275.979 495.398 274.949C495.398 274.949 495.398 274.946 495.4 274.946C497.594 273.567 499.814 272.217 502.05 270.901C501.154 273.762 500.396 276.631 499.679 279.344L499.533 279.886C497.472 287.682 499.131 292.907 503.049 297.148C501.546 298.086 500.056 299.031 498.571 299.997ZM608.517 257.995C608.118 250.483 606.51 242.844 603.693 234.972C605.463 234.71 607.245 234.462 609.026 234.236C611.747 242.087 613.333 249.712 613.786 257.23C612.02 257.471 610.273 257.719 608.517 257.995Z" fill="#57A03C"/>
<path d="M440.745 349.343C437.87 349.343 434.996 348.731 432.116 347.261C428.193 345.262 425.555 341.962 424.675 338.046C424.675 338.046 424.675 338.046 424.675 338.044C428.573 333.168 432.626 328.426 436.826 323.825C436.828 323.825 436.828 323.825 436.831 323.825C438.753 322.947 440.674 322.117 442.557 321.304C444.751 320.356 447.018 319.378 449.217 318.352C454.257 316.004 458.536 314.836 462.132 314.836C464.438 314.836 466.464 315.317 468.229 316.275C469.693 317.069 470.931 318.17 471.947 319.574C470.586 320.705 469.241 321.839 467.901 322.994C467.297 322.064 466.567 321.366 465.718 320.904C464.726 320.37 463.519 320.099 462.098 320.099C459.338 320.099 455.773 321.112 451.442 323.129C449.175 324.186 446.872 325.178 444.647 326.141C441.614 327.45 438.478 328.805 435.476 330.301C434.902 330.584 434.284 330.846 433.655 331.113C430.441 332.464 429.424 333.126 429.65 335.811C429.977 339.7 432.836 341.715 434.51 342.57C436.561 343.616 438.61 344.102 440.786 344.103C442.7 344.103 444.712 343.728 446.919 343.026C444.956 345.104 443.032 347.202 441.129 349.339C441.002 349.341 440.872 349.343 440.745 349.343Z" fill="#57A03C"/>
<path d="M644.536 237.174C537.918 237.174 441.286 297.78 395.064 395.112C380.519 425.725 371.822 458.537 369.216 492.643C368.985 495.66 368.814 498.392 368.691 500.998C361.683 651.284 473.771 777.994 623.868 789.468C773.973 800.944 904.012 692.737 919.927 543.134C920.203 540.527 920.444 537.801 920.677 534.797C923.283 500.692 919.672 466.937 909.951 434.471C877.413 325.716 783.354 248.735 670.315 238.349C668.866 238.207 667.437 238.101 666.023 237.988C664.607 237.882 663.197 237.775 661.8 237.697C656.026 237.344 650.262 237.174 644.536 237.174ZM645.31 800.675C637.926 800.675 630.513 800.392 623.079 799.826C548.17 794.1 479.541 759.927 429.836 703.609C380.229 647.403 354.831 575.276 358.317 500.513C358.444 497.801 358.621 494.969 358.86 491.854C361.565 456.471 370.59 422.423 385.682 390.657C409.979 339.495 448.59 296.964 497.337 267.663C547.156 237.718 604.238 223.772 662.392 227.332C663.826 227.403 665.316 227.524 666.809 227.637C668.304 227.751 669.813 227.864 671.304 228.013C729.297 233.336 783.587 255.8 828.268 292.971C871.982 329.337 903.672 377.238 919.905 431.493C929.995 465.182 933.732 500.209 931.035 535.589C930.795 538.695 930.539 541.522 930.256 544.232C922.334 618.657 886.27 686.085 828.704 734.098C776.743 777.436 712.331 800.675 645.31 800.675Z" fill="#57A03C"/>
<path d="M370.658 602.277C423.364 621.776 819.788 555.981 913.378 405.157" stroke="#FBD927" stroke-width="9" stroke-linecap="round" stroke-linejoin="round"/>
<path d="M362.867 569.561C463.283 584.686 805.409 479.13 863.478 323.944" stroke="#FBD927" stroke-width="9" stroke-linecap="round" stroke-linejoin="round"/>
<path d="M372.858 606.172C424.623 628.044 822.757 581.762 923.098 435.344" stroke="#FBD927" stroke-width="9" stroke-linecap="round" stroke-linejoin="round"/>
<path d="M364.208 584.826C412.145 614.153 812.57 637.095 933.572 507.229" stroke="#FBD927" stroke-width="9" stroke-linecap="round" stroke-linejoin="round"/>
<path d="M372.9 601.022C422.598 627.255 817.963 622.46 930.5 485.193" stroke="#FBD927" stroke-width="9" stroke-linecap="round" stroke-linejoin="round"/>
<path d="M390.391 653.378C447.142 677.742 809.077 677.063 931.853 517.558" stroke="#FBD927" stroke-width="9" stroke-linecap="round" stroke-linejoin="round"/>
<path d="M376.585 628.147C433.336 652.511 811.748 654.832 934.524 495.327" stroke="#FBD927" stroke-width="9" stroke-linecap="round" stroke-linejoin="round"/>
<path d="M478.138 640.502C540.206 639.15 520.583 759.952 520.538 869.669" stroke="#FBD927" stroke-width="9" stroke-linecap="round" stroke-linejoin="round"/>
<path d="M368.016 593.395C420.722 612.893 818.66 545.242 912.25 394.418" stroke="#FBD927" stroke-width="9" stroke-linecap="round" stroke-linejoin="round"/>
<path d="M364.158 589.133C412.589 617.639 814.402 622.938 933.172 491.028" stroke="#FBD927" stroke-width="9" stroke-linecap="round" stroke-linejoin="round"/>
<path d="M360.876 589.586C409.306 618.092 814.034 605.256 929.289 474.846" stroke="#FBD927" stroke-width="9" stroke-linecap="round" stroke-linejoin="round"/>
<path d="M368.159 606.172C371.304 605.83 411.133 621.838 504.505 620.06C543.189 619.324 588.494 611.055 619.906 609.181C666.274 606.414 666.64 601.46 704.537 632.212C741.586 662.277 778.27 689.556 846.772 589.88C856.345 575.948 888.503 542.534 902.282 533.674" stroke="#FBD927" stroke-width="9" stroke-linecap="round" stroke-linejoin="round"/>
<path d="M431.808 853.616C431.942 857.602 423.889 861.364 411.735 863.698C405.609 864.873 400.914 869.891 400.16 876.097C398.661 888.38 395.459 896.671 391.472 896.807C387.482 896.943 383.727 888.886 381.392 876.741C380.211 870.605 375.19 865.911 368.987 865.156C356.701 863.66 348.385 860.463 348.249 856.469C348.112 852.46 356.183 848.7 368.334 846.381C374.479 845.207 379.174 840.18 379.929 833.968C381.425 821.677 384.628 813.386 388.612 813.25C392.598 813.114 396.36 821.169 398.694 833.332C399.874 839.475 404.904 844.161 411.114 844.916C423.383 846.397 431.676 849.607 431.808 853.616Z" fill="#FFFBDE"/>
<path d="M242.629 630.661C242.642 631.885 240.145 632.983 236.399 633.613C234.511 633.931 233.035 635.437 232.76 637.336C232.214 641.094 231.173 643.615 229.948 643.629C228.723 643.643 227.628 641.144 226.997 637.401C226.678 635.51 225.171 634.034 223.273 633.759C219.513 633.214 216.984 632.174 216.971 630.948C216.957 629.717 219.46 628.62 223.204 627.994C225.098 627.677 226.574 626.168 226.849 624.267C227.395 620.507 228.436 617.985 229.66 617.972C230.884 617.958 231.981 620.456 232.612 624.204C232.93 626.097 234.441 627.571 236.341 627.846C240.095 628.387 242.617 629.43 242.629 630.661Z" fill="#FFFBDE"/>
<path d="M935.006 141.106C935.006 142.189 932.786 143.13 929.484 143.648C927.817 143.91 926.505 145.222 926.243 146.896C925.718 150.199 924.783 152.411 923.701 152.411C922.618 152.411 921.683 150.199 921.159 146.896C920.896 145.222 919.585 143.91 917.917 143.648C914.608 143.13 912.389 142.189 912.389 141.106C912.389 140.023 914.608 139.082 917.91 138.564C919.578 138.309 920.896 136.99 921.159 135.322C921.683 132.013 922.618 129.801 923.701 129.801C924.783 129.801 925.718 132.013 926.243 135.322C926.505 136.99 927.817 138.309 929.491 138.564C932.793 139.082 935.006 140.023 935.006 141.106Z" fill="#FFFBDE"/>
<path d="M312.617 327.305C312.617 328.388 310.398 329.329 307.096 329.847C305.428 330.109 304.116 331.421 303.854 333.095C303.329 336.398 302.394 338.61 301.312 338.61C300.229 338.61 299.294 336.398 298.77 333.095C298.508 331.421 297.196 330.109 295.528 329.847C292.219 329.329 290 328.388 290 327.305C290 326.222 292.219 325.281 295.522 324.763C297.189 324.507 298.508 323.189 298.77 321.521C299.294 318.212 300.229 316 301.312 316C302.394 316 303.329 318.212 303.854 321.521C304.116 323.189 305.428 324.507 307.103 324.763C310.405 325.281 312.617 326.222 312.617 327.305Z" fill="#FFFBDE"/>
<path d="M1054.59 304.312C1054.59 305.392 1052.38 306.334 1049.08 306.853C1047.4 307.113 1046.09 308.428 1045.83 310.095C1045.31 313.404 1044.37 315.615 1043.29 315.615C1042.21 315.615 1041.27 313.404 1040.75 310.095C1040.49 308.428 1039.17 307.113 1037.5 306.853C1034.19 306.334 1031.98 305.392 1031.98 304.312C1031.98 303.226 1034.19 302.284 1037.5 301.769C1039.17 301.51 1040.49 300.192 1040.75 298.523C1041.27 295.213 1042.21 293 1043.29 293C1044.37 293 1045.31 295.213 1045.83 298.523C1046.09 300.192 1047.41 301.51 1049.08 301.769C1052.38 302.284 1054.59 303.226 1054.59 304.312Z" fill="#FFFBDE"/>
<path d="M689.613 129.087C689.689 131.337 685.143 133.461 678.282 134.778C674.823 135.441 672.173 138.274 671.747 141.777C670.901 148.712 669.094 153.392 666.843 153.469C664.59 153.546 662.471 148.997 661.153 142.141C660.486 138.677 657.652 136.027 654.15 135.602C647.214 134.757 642.52 132.952 642.443 130.698C642.366 128.434 646.922 126.311 653.781 125.002C657.25 124.34 659.9 121.502 660.327 117.995C661.172 111.057 662.979 106.377 665.228 106.3C667.479 106.223 669.602 110.77 670.92 117.636C671.586 121.104 674.426 123.749 677.931 124.175C684.857 125.012 689.539 126.824 689.613 129.087Z" fill="#FFFBDE"/>
<path d="M746.106 822.555C746.106 823.658 743.845 824.62 740.467 825.15C738.763 825.416 737.42 826.761 737.153 828.465C736.623 831.844 735.66 834.103 734.558 834.103C733.455 834.103 732.493 831.844 731.963 828.465C731.697 826.761 730.352 825.416 728.649 825.15C725.267 824.62 723 823.658 723 822.555C723 821.446 725.267 820.483 728.643 819.958C730.35 819.691 731.697 818.347 731.963 816.64C732.493 813.259 733.455 811 734.558 811C735.66 811 736.623 813.259 737.153 816.64C737.42 818.347 738.766 819.691 740.473 819.958C743.847 820.483 746.106 821.448 746.106 822.555Z" fill="#FFFBDE"/>
<path d="M1124.05 410.826C1124.05 413.325 1122.02 415.347 1119.53 415.347C1117.03 415.347 1115 413.325 1115 410.826C1115 408.33 1117.03 406.304 1119.53 406.304C1122.02 406.304 1124.05 408.33 1124.05 410.826Z" fill="#FFFBDE"/>
<path d="M1009.03 363.522C1009.03 366.02 1007 368.042 1004.51 368.042C1002.01 368.042 999.981 366.02 999.981 363.522C999.981 361.025 1002.01 359 1004.51 359C1007 359 1009.03 361.025 1009.03 363.522Z" fill="#FFFBDE"/>
<path d="M1042.49 644.021C1042.62 646.507 1040.72 648.636 1038.24 648.776C1035.75 648.917 1033.63 647.016 1033.48 644.529C1033.34 642.042 1035.25 639.914 1037.73 639.774C1040.22 639.633 1042.35 641.535 1042.49 644.021Z" fill="#FFFBDE"/>
<path d="M914.709 766.06C914.877 769.015 912.617 771.548 909.658 771.713C906.706 771.881 904.171 769.619 904.009 766.664C903.841 763.707 906.1 761.177 909.053 761.009C912.012 760.841 914.541 763.103 914.709 766.06Z" fill="#FFFBDE"/>
<path d="M905.982 866.383C906.327 872.446 901.688 877.643 895.615 877.982C889.554 878.326 884.35 873.685 884.018 867.623C883.673 861.554 888.311 856.362 894.372 856.018C900.445 855.674 905.636 860.315 905.982 866.383Z" fill="#FFFBDE"/>
<path d="M363.722 293.288C363.764 296.249 361.399 298.683 358.438 298.724C355.477 298.767 353.043 296.402 353.001 293.439C352.96 290.482 355.325 288.047 358.285 288.001C361.246 287.96 363.68 290.327 363.722 293.288Z" fill="#FFFBDE"/>
<path d="M880.795 287.82C880.795 290.316 878.771 292.342 876.269 292.342C873.774 292.342 871.749 290.316 871.749 287.82C871.749 285.324 873.774 283.299 876.269 283.299C878.771 283.299 880.795 285.324 880.795 287.82Z" fill="#FFFBDE"/>
<path d="M401.711 106.287C401.754 109.246 399.388 111.68 396.427 111.721C393.467 111.761 391.032 109.401 390.99 106.435C390.948 103.476 393.315 101.041 396.274 101C399.235 100.961 401.669 103.328 401.711 106.287Z" fill="#FFFBDE"/>
<path d="M341.134 671.596C341.4 674.388 339.352 676.868 336.56 677.134C333.768 677.4 331.289 675.35 331.024 672.559C330.757 669.769 332.805 667.287 335.597 667.023C338.389 666.757 340.869 668.804 341.134 671.596Z" fill="#FFFBDE"/>
<path d="M1055.37 195.116C1055.37 196.401 1054.33 197.444 1053.04 197.444C1051.76 197.444 1050.72 196.401 1050.72 195.116C1050.72 193.832 1051.76 192.79 1053.04 192.79C1054.33 192.79 1055.37 193.832 1055.37 195.116Z" fill="#FFFBDE"/>
<path d="M1061.46 774.858C1061.55 776.377 1060.39 777.679 1058.87 777.765C1057.35 777.849 1056.04 776.687 1055.95 775.168C1055.87 773.647 1057.04 772.344 1058.56 772.26C1060.08 772.174 1061.38 773.335 1061.46 774.858Z" fill="#FFFBDE"/>
<path d="M504.653 156.89C504.674 158.41 503.457 159.661 501.936 159.687C500.413 159.708 499.161 158.49 499.138 156.964C499.119 155.444 500.334 154.193 501.857 154.173C503.378 154.153 504.631 155.363 504.653 156.89Z" fill="#FFFBDE"/>
<path d="M714.488 181.411C714.511 182.931 713.292 184.189 711.771 184.208C710.249 184.228 708.996 183.011 708.973 181.491C708.954 179.965 710.17 178.714 711.691 178.694C713.213 178.674 714.466 179.891 714.488 181.411Z" fill="#FFFBDE"/>
<path d="M336.156 751.076C336.156 753.883 333.883 756.155 331.078 756.155C328.274 756.155 326 753.883 326 751.076C326 748.272 328.274 746 331.078 746C333.883 746 336.156 748.272 336.156 751.076Z" fill="#FFFBDE"/>
<defs>
<filter id="filter0_f_38_4680" x="0" y="-44" width="1164" height="1164" filterUnits="userSpaceOnUse" color-interpolation-filters="sRGB">
<feFlood flood-opacity="0" result="BackgroundImageFix"/>
<feBlend mode="normal" in="SourceGraphic" in2="BackgroundImageFix" result="shape"/>
<feGaussianBlur stdDeviation="105.5" result="effect1_foregroundBlur_38_4680"/>
</filter>
</defs>
</svg>
