<svg width="282" height="282" viewBox="0 0 282 282" fill="none" xmlns="http://www.w3.org/2000/svg">
<g clip-path="url(#clip0_36_1509)">
<rect x="293.416" y="75" width="43.966" height="309.855" transform="rotate(48.0411 293.416 75)" fill="#E13320"/>
<path fill-rule="evenodd" clip-rule="evenodd" d="M141 0C218.872 0 282 63.208 282 141.18C282 142.869 281.96 144.549 281.9 146.223L130.945 282C57.7649 276.835 0 215.764 0 141.18C0 63.208 63.1275 0 141 0Z" fill="#E13320"/>
<path fill-rule="evenodd" clip-rule="evenodd" d="M271.805 146C275.235 146 278.634 146.128 282 146.369L131 282C133.651 206.44 195.671 146 271.805 146Z" fill="url(#paint0_linear_36_1509)"/>
</g>
<defs>
<linearGradient id="paint0_linear_36_1509" x1="170.032" y1="178.8" x2="244.185" y2="260.13" gradientUnits="userSpaceOnUse">
<stop stop-color="white"/>
<stop offset="0.185014" stop-color="#BEBEBE" stop-opacity="0.886975"/>
<stop offset="0.323976" stop-color="#F4A327"/>
<stop offset="0.465462" stop-color="#FFDA94"/>
<stop offset="0.600017" stop-color="#9E9E9D" stop-opacity="0"/>
<stop offset="0.932292" stop-color="#9E9E9D" stop-opacity="0"/>
</linearGradient>
<clipPath id="clip0_36_1509">
<rect width="282" height="282" rx="141" fill="white"/>
</clipPath>
</defs>
</svg>
