<svg width="365" height="94" viewBox="0 0 365 94" fill="none" xmlns="http://www.w3.org/2000/svg">
<path d="M362.8 42.1404C345.053 36.4774 287.803 38.9968 267.509 30.1747C210.069 5.20469 290.607 -9.15551 288.959 22.6107C288.21 37.0587 281.764 48.6672 273.882 58.8622C266 69.0573 252.247 76.3259 234.015 72.7598C213.759 68.7963 199.506 39.1994 180.802 44.9659C170.259 48.2193 158.554 66.1369 152.041 75.3743C134.523 100.219 140.334 93.5127 116.669 51.2489C48.3557 -70.7559 -33.5666 136.28 54.1709 51.6113C76.0668 30.4813 40.0663 26.6126 13.4163 12.081C14.2167 1.7753 2.26124 30.1193 5.49553 20.6944" stroke="url(#paint0_linear_36_1924)" stroke-width="8"/>
<defs>
<linearGradient id="paint0_linear_36_1924" x1="205.018" y1="72.311" x2="17.6493" y2="-1.6789" gradientUnits="userSpaceOnUse">
<stop offset="0.00462856" stop-color="#FAB65B"/>
<stop offset="1" stop-color="#FFFBDE"/>
</linearGradient>
</defs>
</svg>
